<?xml version="1.0" standalone="no"?>
<!DOCTYPE svg PUBLIC "-//W3C//DTD SVG 20010904//EN"
 "http://www.w3.org/TR/2001/REC-SVG-20010904/DTD/svg10.dtd">
<svg version="1.0" xmlns="http://www.w3.org/2000/svg"
 width="500.000000pt" height="500.000000pt" viewBox="0 0 500.000000 500.000000"
 preserveAspectRatio="xMidYMid meet">
<metadata>
Created by potrace 1.11, written by Peter Selinger 2001-2013
</metadata>
<g transform="translate(0.000000,500.000000) scale(0.100000,-0.100000)"
fill="#000000" stroke="none">
<path d="M1599 4099 c-503 -291 -922 -529 -933 -529 -18 0 -18 -19 -12 -562
10 -966 18 -1573 20 -1574 21 -16 1829 -1054 1834 -1054 5 0 420 238 923 528
l914 529 3 1065 2 1065 -737 425 c-406 234 -819 473 -919 531 l-181 104 -914
-528z m1066 -593 c297 -48 475 -137 628 -314 152 -175 219 -361 220 -607 0
-150 -18 -248 -68 -371 -87 -217 -240 -376 -466 -483 -222 -106 -329 -121
-871 -121 l-418 0 0 961 0 961 438 -5 c335 -4 460 -9 537 -21z"/>
<path d="M2010 2566 l0 -816 203 0 c226 0 299 8 413 45 108 34 195 87 280 170
124 122 201 289 224 490 51 427 -156 772 -535 896 -64 21 -93 23 -327 27
l-258 4 0 -816z"/>
</g>
</svg>
